# xmcd
#
# Track frame offsets:
#	150
#	13782
#	37020
#	48855
#	61032
#	75132
#	88655
#	103842
#	123957
#	144957
#	166110
#	184672
#	207030
#	229105
#
# Disc length: 3306 seconds
#
# Revision: 1
# Processed by: cddbd v1.5PL3 Copyright (c) Steve Scherf et al.
# Submitted via: CDex 1.50Beta5
#
DISCID=a30ce80e
DTITLE=w-inds. - w-inds.〜THE SYSTEM OF ALIVE
DYEAR=2002
DGENRE=Pop
TTITLE0=Break Down,Build Up
TTITLE1=NEW PARADISE
TTITLE2=SOMEHOW
TTITLE3=fever
TTITLE4=Baby Maybe
TTITLE5=SYSTEM OF ALIVE,THE
TTITLE6=Because of you
TTITLE7=try your emotion〜next side version〜
TTITLE8=THANK YOU
TTITLE9=I still love you
TTITLE10=Find Myself
TTITLE11=Another Days
TTITLE12=This Time〜願い〜
TTITLE13=Top of the world
EXTD=
EXTT0=
EXTT1=
EXTT2=
EXTT3=
EXTT4=
EXTT5=
EXTT6=
EXTT7=
EXTT8=
EXTT9=
EXTT10=
EXTT11=
EXTT12=
EXTT13=
PLAYORDER=
